<?xml version="1.0" encoding="utf-8"?>
<?xml-stylesheet type="text/xsl" href="rss1.xsl"?>
<rss version="2.0" xmlns:atom="http://www.w3.org/2005/Atom" xmlns:content="http://purl.org/rss/1.0/modules/content/" xmlns:dc="http://purl.org/dc/elements/1.1/" xmlns:media="http://search.yahoo.com/mrss/">
<channel>
 <title>Getty</title>
 <link>http://www.gettyimg.com/</link>
 <atom:link href="http://www.gettyimg.com/" rel="self" type="application/rss+xml" />

 
                <item>
                <title><![CDATA[【YOUTUBE】The Corrs - Breathless (YTPREMIUM-1080P-VP9-LK72)]]></title>
                <link><![CDATA[https://sharemania.us/threads/the-corrs-breathless-ytpremium-1080p-vp9-lk72.249258/]]></link>
                <description><![CDATA[<article>
<blockquote class="messageText SelectQuoteContainer ugc baseHtml">
<div style="text-align: center"><img src="https://i.imgur.com/G7AfEp0.jpeg" class="bbCodeImage LbImage" alt="[​IMG]" data-url="https://i.imgur.com/G7AfEp0.jpeg" style=""> <br>
<div class="bbCodeBlock bbCodeVfcHH HiddenContent">
<div class="attribution type">Hidden Content:</div>
<blockquote>You must reply before you can see the hidden data contained here.</blockquote>
</div></div>
<div class="messageTextEndMarker">&nbsp;</div>
</blockquote>
</article>]]></description>
                <author><![CDATA[luke72]]></author>
                </item>

                
                <item>
                <title><![CDATA[【YOUTUBE】98º - Where Do You Wanna Go (YTPREMIUM-1080P-VP9-LK72)]]></title>
                <link><![CDATA[https://sharemania.us/threads/98%C2%BA-where-do-you-wanna-go-ytpremium-1080p-vp9-lk72.249257/]]></link>
                <description><![CDATA[<article>
<blockquote class="messageText SelectQuoteContainer ugc baseHtml">
<div style="text-align: center"><img src="https://i.imgur.com/h6G0ORT.jpeg" class="bbCodeImage LbImage" alt="[​IMG]" data-url="https://i.imgur.com/h6G0ORT.jpeg" style=""> <br>
<div class="bbCodeBlock bbCodeVfcHH HiddenContent">
<div class="attribution type">Hidden Content:</div>
<blockquote>You must reply before you can see the hidden data contained here.</blockquote>
</div></div>
<div class="messageTextEndMarker">&nbsp;</div>
</blockquote>
</article>]]></description>
                <author><![CDATA[luke72]]></author>
                </item>

                
                <item>
                <title><![CDATA[【Vimeo】Karol G - Si Antes Te Hubiera Conocido (VIMEO-4K-LK72)]]></title>
                <link><![CDATA[https://sharemania.us/threads/karol-g-si-antes-te-hubiera-conocido-vimeo-4k-lk72.249255/]]></link>
                <description><![CDATA[<article>
<blockquote class="messageText SelectQuoteContainer ugc baseHtml">
<div style="text-align: center"><img src="https://i.imgur.com/S8vEXGK.jpeg" class="bbCodeImage LbImage" alt="[​IMG]" data-url="https://i.imgur.com/S8vEXGK.jpeg" style=""> <br>
<div class="bbCodeBlock bbCodeVfcHH HiddenContent">
<div class="attribution type">Hidden Content:</div>
<blockquote>You must reply before you can see the hidden data contained here.</blockquote>
</div></div>
<div class="messageTextEndMarker">&nbsp;</div>
</blockquote>
</article>]]></description>
                <author><![CDATA[luke72]]></author>
                </item>

                
                <item>
                <title><![CDATA[【Apple Music】WEB-RiP - Pitbull &amp; Fifth Harmony - Por Favor (1080p)]]></title>
                <link><![CDATA[https://sharemania.us/threads/pitbull-fifth-harmony-por-favor-1080p.249256/]]></link>
                <description><![CDATA[<article>
<blockquote class="messageText SelectQuoteContainer ugc baseHtml">
<img src="https://i.postimg.cc/qMP31nTt/Pitbull-Fifth-Harmony-Por-Favor-mp4.jpg" class="bbCodeImage LbImage" alt="[​IMG]" data-url="https://i.postimg.cc/qMP31nTt/Pitbull-Fifth-Harmony-Por-Favor-mp4.jpg" style=""><br>
<br>
<div class="bbCodeBlock bbCodeCode">
<div class="type">Code:</div>
<pre>General
Complete name                  : G:\Новая папка\Pitbull &amp; Fifth Harmony - Por Favor.mp4
Format                         : MPEG-4
Format profile                 : Base Media
Codec ID                       : isom (isom/iso2/avc1/mp41)
File size                      : 163 MiB
Duration                       : 3 min 30 s
Overall bit rate               : 6 502 kb/s
Frame rate                     : 23.976 FPS
Movie name                     : Por Favor
Performer                      : Pitbull &amp; Fifth Harmony
Genre                          : Latin
ContentType                    : Music Video
Recorded date                  : 2017-12-01 08:00:00 UTC
Writing application            : Lavf56.30.100
Copyright                      : ℗ 2017 Mr. 305 Records

Video
ID                             : 1
Format                         : AVC
Format/Info                    : Advanced Video Codec
Format profile                 : High@L4.1
Format settings                : CABAC / 5 Ref Frames
Format settings, CABAC         : Yes
Format settings, Reference fra : 5 frames
Format settings, Slice count   : 8 slices per frame
Codec ID                       : avc1
Codec ID/Info                  : Advanced Video Coding
Duration                       : 3 min 30 s
Bit rate                       : 6 247 kb/s
Width                          : 1 920 pixels
Height                         : 720 pixels
Display aspect ratio           : 2.667
Frame rate mode                : Constant
Frame rate                     : 23.976 (23976/1000) FPS
Color space                    : YUV
Chroma subsampling             : 4:2:0
Bit depth                      : 8 bits
Scan type                      : Progressive
Bits/(Pixel*Frame)             : 0.188
Stream size                    : 157 MiB (96%)
Color range                    : Limited
Color primaries                : BT.709
Transfer characteristics       : BT.709
Matrix coefficients            : BT.709
Codec configuration box        : avcC

Audio
ID                             : 2
Format                         : AAC LC
Format/Info                    : Advanced Audio Codec Low Complexity
Codec ID                       : mp4a-40-2
Duration                       : 3 min 30 s
Duration_LastFrame             : -14 ms
Bit rate mode                  : Constant
Bit rate                       : 250 kb/s
Channel(s)                     : 2 channels
Channel layout                 : L R
Sampling rate                  : 48.0 kHz
Frame rate                     : 46.875 FPS (1024 SPF)
Compression mode               : Lossy
Stream size                    : 6.27 MiB (4%)
Default                        : Yes
Alternate group                : 1

</pre>
</div>
<div class="bbCodeBlock bbCodeVfcHH HiddenContent">
<div class="attribution type">Hidden Content:</div>
<blockquote>You must either reply or click 'Like' to see the hidden information contained here.</blockquote>
</div>
<div class="messageTextEndMarker">&nbsp;</div>
</blockquote>
</article>]]></description>
                <author><![CDATA[vitalya3]]></author>
                </item>

                
                <item>
                <title><![CDATA[【YOUTUBE】Natasha Bedingfield - Unwritten (US Version) (YTPREMIUM-1080P-VP9-LK72)]]></title>
                <link><![CDATA[https://sharemania.us/threads/natasha-bedingfield-unwritten-us-version-ytpremium-1080p-vp9-lk72.249259/]]></link>
                <description><![CDATA[<article>
<blockquote class="messageText SelectQuoteContainer ugc baseHtml">
<div style="text-align: center"><img src="https://i.imgur.com/EdnqZ1B.jpeg" class="bbCodeImage LbImage" alt="[​IMG]" data-url="https://i.imgur.com/EdnqZ1B.jpeg" style=""> <br>
<div class="bbCodeBlock bbCodeVfcHH HiddenContent">
<div class="attribution type">Hidden Content:</div>
<blockquote>You must reply before you can see the hidden data contained here.</blockquote>
</div></div>
<div class="messageTextEndMarker">&nbsp;</div>
</blockquote>
</article>]]></description>
                <author><![CDATA[luke72]]></author>
                </item>

                </channel></rss>